<svg width="36" height="37" viewBox="0 0 36 37" fill="none" xmlns="http://www.w3.org/2000/svg">
<path d="M17.2004 36.504C16.8662 34.4728 15.9851 32.2853 14.5571 29.9415C13.1292 27.5665 11.0936 25.3634 8.45036 23.3322C5.83751 21.3009 3.22466 20.004 0.611816 19.4415V17.4728C3.19428 16.8478 5.67041 15.6915 8.0402 14.004C10.4404 12.2853 12.4456 10.2228 14.0558 7.81653C15.6965 5.34778 16.7446 2.91028 17.2004 0.504028H19.1144C19.3879 2.06653 19.9347 3.6759 20.755 5.33215C21.5754 6.95715 22.6235 8.51965 23.8996 10.0197C25.206 11.4884 26.6643 12.8165 28.2746 14.004C30.6748 15.754 33.1205 16.9103 35.6118 17.4728V19.4415C33.9408 19.7853 32.209 20.4884 30.4165 21.5509C28.6544 22.6134 27.0137 23.879 25.4946 25.3478C23.9755 26.7853 22.7299 28.3009 21.7576 29.8947C20.3297 32.2384 19.4486 34.4415 19.1144 36.504H17.2004Z" fill="#FDC700"/>
</svg>
